#!OML:ASF G:\JayActor3\Patient Classification 1\Patient 1\Session 2\male.ASF
:FULLY-SPECIFIED
:DEGREES
707
root -28.2828 16.2658 -4.09209 -540.185 60.458 170.475
lowerback 7.90116 -3.44227 -3.21266
upperback 3.21248 -4.63229 2.13839
thorax -0.6525 -2.30032 4.38042
lowerneck -10.8947 -2.5178 0.320634
upperneck -6.67021 -2.70782 9.55166
head -0.114228 -1.10124 2.91853
rclavicle 5.80451e-014 -6.52014e-014
rhumerus -36.3478 21.7394 -89.404
rradius 46.9617
rwrist -19.4686
rhand -28.2436 3.28904
rfingers 7.12502
rthumb -1.6212 -26.6845
lclavicle 5.80451e-014 -6.52014e-014
lhumerus -32.7939 -15.7711 99.3222
lradius 22.3105
lwrist 12.1329
lhand -31.5411 22.9611
lfingers 7.12502
lthumb -4.80563 52.8866
rfemur -34.5894 0.763153 14.7911
rtibia 70.8323
rfoot -25.5602 -6.82564
rtoes -3.46211
lfemur -20.1849 7.74593 -30.6588
ltibia 34.9848
lfoot -23.9446 4.78547
ltoes -24.5449
708
root -28.0737 16.2611 -4.1729 -540.451 59.7896 170.207
lowerback 7.89778 -3.6284 -3.24678
upperback 3.31771 -4.87246 2.22503
thorax -0.50655 -2.42365 4.50053
lowerneck -10.9827 -2.48303 0.330929
upperneck -6.76003 -2.65463 9.45749
head -0.133163 -1.07444 2.88655
rclavicle 1.59028e-015 2.46493e-014
rhumerus -37.8181 20.3374 -88.7004
rradius 45.5403
rwrist -19.8725
rhand -28.0283 3.2045
rfingers 7.12502
rthumb -1.41322 -26.7706
lclavicle 1.59028e-015 2.46493e-014
lhumerus -29.6869 -14.6053 99.487
lradius 22.3671
lwrist 11.6868
lhand -31.5738 22.7463
lfingers 7.12502
lthumb -4.83718 52.6711
rfemur -36.5622 1.2318 14.1444
rtibia 70.1191
rfoot -25.9934 -6.72165
rtoes -3.754
lfemur -18.7959 7.05817 -30.6092
ltibia 34.2378
lfoot -24.2693 5.00124
ltoes -24.5997
709
root -27.862 16.2595 -4.25522 -540.737 59.1706 169.915
lowerback 7.87138 -3.8036 -3.3018
upperback 3.42582 -5.09924 2.31191
thorax -0.34316 -2.54125 4.62896
lowerneck -11.0684 -2.44176 0.34805
upperneck -6.85815 -2.59421 9.32678
head -0.156281 -1.045 2.84126
rclavicle -5.88403e-014 -1.51076e-014
rhumerus -39.3537 19.2465 -88.1182
rradius 44.2418
rwrist -20.1372
rhand -27.6949 3.17535
rfingers 7.12502
rthumb -1.09125 -26.8016
lclavicle -5.88403e-014 -1.51076e-014
lhumerus -26.9448 -14.2879 100.081
lradius 22.9479
lwrist 11.912
lhand -31.4835 22.4824
lfingers 7.12502
lthumb -4.75003 52.4092
rfemur -38.4194 1.65917 13.478
rtibia 69.1978
rfoot -26.2638 -6.60914
rtoes -4.00906
lfemur -17.3272 6.3505 -30.5818
ltibia 33.3522
lfoot -24.5298 5.27381
ltoes -24.5766
710
root -27.648 16.2602 -4.33889 -541.046 58.609 169.585
lowerback 7.82538 -3.96792 -3.37771
upperback 3.52611 -5.3135 2.39245
thorax -0.175738 -2.65332 4.75957
lowerneck -11.1499 -2.39284 0.378422
upperneck -6.94656 -2.52787 9.16155
head -0.178035 -1.01346 2.78209
rclavicle -6.91771e-014 1.59028e-015
rhumerus -40.948 18.432 -87.6928
rradius 43.0519
rwrist -20.2475
rhand -27.2421 3.19184
rfingers 7.12502
rthumb -0.653892 -26.7869
lclavicle -6.91771e-014 1.59028e-015
lhumerus -24.542 -14.9065 100.966
lradius 24.0243
lwrist 12.7454
lhand -31.273 22.1804
lfingers 7.12502
lthumb -4.54676 52.1116
rfemur -40.1683 2.02748 12.8031
rtibia 68.0806
rfoot -26.3731 -6.49039
rtoes -4.19917
lfemur -15.7847 5.65949 -30.584
ltibia 32.3202
lfoot -24.7185 5.57385
ltoes -24.4832
711
root -27.4318 16.2609 -4.42356 -541.38 58.1089 169.212
lowerback 7.76296 -4.12229 -3.47625
upperback 3.6094 -5.51727 2.46257
thorax -0.0155637 -2.76069 4.88983
lowerneck -11.2269 -2.33447 0.428051
upperneck -7.00728 -2.45583 8.96667
head -0.192629 -0.979712 2.70959
rclavicle 2.50469e-014 2.94201e-014
rhumerus -42.5866 17.8369 -87.4394
rradius 41.9572
rwrist -20.229
rhand -26.6748 3.24304
rfingers 7.12502
rthumb -0.105973 -26.7367
lclavicle 2.50469e-014 2.94201e-014
lhumerus -22.4371 -16.4121 101.977
lradius 25.5342
lwrist 14.011
lhand -30.9481 21.8428
lfingers 7.12502
lthumb -4.23306 51.7804
rfemur -41.8241 2.32051 12.1347
rtibia 66.7921
rfoot -26.3236 -6.37348
rtoes -4.28273
lfemur -14.1836 5.01911 -30.6184
ltibia 31.1546
lfoot -24.836 5.87554
ltoes -24.3427
712
root -27.2134 16.2597 -4.50891 -541.739 57.672 168.792
lowerback 7.68585 -4.26744 -3.60099
upperback 3.66974 -5.71209 2.52109
thorax 0.130633 -2.86408 5.02105
lowerneck -11.3007 -2.26444 0.501115
upperneck -7.02574 -2.37699 8.74842
head -0.195099 -0.942979 2.6252
rclavicle 1.03368e-014 3.02153e-014
rhumerus -44.248 17.388 -87.3516
rradius 40.9471
rwrist -20.1511
rhand -26.0116 3.32075
rfingers 7.12502
rthumb 0.534495 -26.6583
lclavicle 1.03368e-014 3.02153e-014
lhumerus -20.5743 -18.66 102.96
lradius 27.3998
lwrist 15.4859
lhand -30.5167 21.4554
lfingers 7.12502
lthumb -3.81645 51.401
rfemur -43.3995 2.52555 11.4908
rtibia 65.3601
rfoot -26.1175 -6.27021
rtoes -4.2223
lfemur -12.5411 4.46108 -30.683
ltibia 29.8803
lfoot -24.8893 6.15748
ltoes -24.187
